<svg width="577" height="450" viewBox="0 0 577 450" fill="none" xmlns="http://www.w3.org/2000/svg">
<circle cx="352" cy="225" r="225" fill="#E5F8FB"/>
<path d="M351.741 420C301.627 420 261 414.624 261 408.003C261 401.376 301.627 396 351.741 396C401.854 396 442.481 401.376 442.481 408.003C442.481 414.624 401.854 420 351.741 420" fill="#C9E3E8"/>
<path d="M265.886 302.102C230.269 302.102 212.989 273.3 205.643 256.78C201.635 247.755 203.456 235.99 212.479 231.978C221.504 227.968 224.75 242.524 232.636 251.321C236.483 255.609 247.971 266.342 265.886 266.342C285.079 266.342 302.371 257.043 302.543 256.947C311.176 252.154 322.03 255.281 326.824 263.912C331.619 272.546 328.479 283.446 319.845 288.243C318.828 288.808 294.571 302.102 265.886 302.102" fill="white"/>
<path d="M361.431 357.188L301.619 345.691C301.619 345.691 283.323 315.653 290.219 279.784C299.102 233.588 248.876 204.23 261.289 139.667C274.165 72.697 336.117 33.1469 394.344 44.2327L394.435 44.2509L394.545 44.2719C452.725 55.5709 495.591 115.275 482.717 182.247C470.3 246.805 409.714 252.912 400.822 299.109C393.925 334.986 361.431 357.188 361.431 357.188" fill="white"/>
<path d="M364.1 413.792C386.032 413.792 393.788 311.398 393.788 311.398C395.036 300.155 386.934 290.03 375.692 288.78C364.445 287.527 354.321 295.635 353.075 306.873C353.075 306.873 342.174 413.792 364.1 413.792" fill="white"/>
<path d="M321.519 412.945C347.114 412.945 331.102 304.458 331.102 304.458C329.958 293.205 319.906 285 308.656 286.148C297.403 287.286 289.205 297.337 290.346 308.593C290.346 308.593 297.962 412.945 321.519 412.945" fill="white"/>
<path d="M399.218 51.3213C399.218 51.3213 412.365 51.273 418.86 44.0155C425.539 36.5484 408.985 34.2808 402.261 39.8802C399.309 42.34 397.897 44.6204 397.897 44.6204C397.897 44.6204 397.569 33.357 392.321 30.7267C387.076 28.1001 383.04 33.1137 385.301 37.4595C387.56 41.8089 387.56 41.8089 387.56 41.8089C387.56 41.8089 383.649 36.2815 376.752 34.1004C371.156 32.3257 366.174 32.3092 368.225 37.0896C369.606 40.3093 381.937 48.7694 381.937 48.7694L399.218 51.3213Z" fill="white"/>
<path d="M281.025 93.4595C283.56 95.2533 286.192 96.8933 288.833 98.4849C291.484 100.065 294.203 101.52 296.958 102.874C299.008 103.904 301.119 104.861 303.214 105.733C304.754 103.057 306.3 100.385 307.884 97.7423L308.002 97.562C308.926 96.2409 310.752 95.9275 312.066 96.8577L312.232 96.9743C314.963 98.8967 317.738 100.746 320.56 102.516C323.396 104.27 326.211 106.05 329.105 107.698C331.991 109.359 334.913 110.944 337.874 112.441C338.585 112.794 339.312 113.152 340.037 113.506L339.012 107.395C338.824 106.207 339.154 104.926 340.038 103.975C341.555 102.333 344.119 102.235 345.764 103.757L345.811 103.802C352.03 109.551 359.063 114.637 366.53 119.082C373.931 123.663 381.747 127.649 389.669 131.466C393.632 133.381 397.659 135.182 401.713 136.937C405.74 138.735 409.821 140.453 413.93 142.097C422.13 145.482 430.448 148.603 438.839 151.696C429.965 150.443 421.255 148.349 412.6 146.022C408.291 144.795 403.99 143.495 399.727 142.102C395.472 140.664 391.245 139.115 387.057 137.471C378.668 134.179 370.484 130.3 362.54 125.851C357.804 123.083 353.12 120.113 348.668 116.784L349.109 119.679L349.124 119.781C349.234 120.498 349.148 121.254 348.829 121.968C347.951 123.951 345.629 124.84 343.65 123.958C340.312 122.47 337.301 120.93 334.261 119.211C331.24 117.516 328.269 115.74 325.354 113.89C322.446 112.028 319.553 110.143 316.781 108.087C314.834 106.663 312.925 105.192 311.034 103.701C309.503 105.901 307.977 108.106 306.408 110.279L306.235 110.516C305.578 111.431 304.339 111.758 303.3 111.246C300.31 109.769 297.627 108.178 294.912 106.469C292.243 104.737 289.655 102.883 287.153 100.943C284.64 99.0069 282.264 96.9069 279.986 94.7249C277.69 92.5557 275.596 90.1879 273.598 87.7726C275.978 89.8134 278.502 91.6574 281.025 93.4595" fill="#082032"/>
<path d="M296.732 162.535C294.54 168.619 287.831 171.767 281.746 169.578C275.663 167.383 272.508 160.676 274.705 154.592C276.894 148.507 283.607 145.353 289.689 147.548C295.773 149.741 298.927 156.449 296.732 162.535" fill="#082032"/>
<path d="M280.178 139.887C284.165 140.872 287.516 141.665 290.481 143.146C291.955 143.879 293.332 144.755 294.655 145.859C296.007 146.948 297.257 148.284 298.731 149.767C299.004 145.609 296.268 141.368 292.293 139.477C290.335 138.509 288.171 138.082 286.08 138.143C284 138.232 281.933 138.705 280.178 139.887" fill="#082032"/>
<path d="M376.06 191.138C373.868 197.219 377.021 203.924 383.11 206.12C389.192 208.31 395.9 205.163 398.096 199.081C400.291 192.992 397.13 186.281 391.053 184.091C384.964 181.897 378.253 185.048 376.06 191.138" fill="#082032"/>
<path d="M403.253 184.258C402.67 182.23 401.376 180.546 399.827 179.148C398.26 177.767 396.32 176.717 394.197 176.215C389.925 175.134 385.111 176.653 382.672 180.031C384.758 179.827 386.567 179.6 388.302 179.621C390.025 179.614 391.646 179.82 393.24 180.194C396.474 180.948 399.563 182.475 403.253 184.258" fill="#082032"/>
<path d="M357.812 183.589C352.214 199.113 360.288 216.298 375.813 221.89C391.337 227.488 408.511 219.409 414.114 203.885C419.708 188.366 411.636 171.183 396.102 165.589C380.589 159.991 363.406 168.066 357.812 183.589V183.589ZM350.104 180.81C357.235 161.042 379.118 150.756 398.89 157.884C418.66 165.011 428.946 186.896 421.821 206.665C414.697 226.437 392.804 236.726 373.033 229.594C353.264 222.473 342.978 200.585 350.104 180.81Z" fill="#082032"/>
<path d="M259.111 148.004C253.515 163.531 261.587 180.711 277.115 186.308C292.638 191.907 309.813 183.825 315.411 168.305C321.005 152.783 312.934 135.602 297.411 130.005C281.887 124.406 264.704 132.485 259.111 148.004V148.004ZM251.403 145.227C258.53 125.459 280.417 115.173 300.19 122.303C319.96 129.428 330.244 151.312 323.12 171.083C315.991 190.856 294.104 201.142 274.335 194.016C254.563 186.886 244.277 165.004 251.403 145.227" fill="#082032"/>
<path d="M352.165 178.679L359.028 174.202C354.807 167.738 348.729 162.935 341.451 160.311C334.223 157.703 326.525 157.511 319.197 159.753L321.592 167.588C327.216 165.866 333.123 166.012 338.675 168.016C344.265 170.031 348.928 173.721 352.165 178.679" fill="#082032"/>
<path d="M348.292 200.793L331.513 194.841L331.209 194.732L314.43 188.784C314.43 188.784 311.002 198.289 308.686 209.85C306.617 220.192 310.535 229.15 318.015 231.948V231.954L318.096 231.991L318.166 232.007L318.227 232.04L318.316 232.061L318.319 232.057C325.892 234.595 334.576 230.104 339.483 220.769C344.967 210.331 348.292 200.793 348.292 200.793" fill="#082032"/>
<path d="M339.484 220.769C340.509 218.818 341.452 216.907 342.321 215.078C339.259 212.527 328.861 206.238 308.149 215.185C308.128 223.167 311.857 229.645 318.016 231.948V231.954L318.096 231.991L318.167 232.007L318.228 232.04L318.317 232.061L318.32 232.057C325.893 234.595 334.577 230.104 339.484 220.769" fill="#D85E54"/>
<path d="M402.743 281.741C392.238 272.461 376.527 277.813 372.303 291.143C369.348 300.462 380.346 306.952 385.478 313.102C392.411 321.42 398.424 331.296 398.871 342.401C399.299 353.143 395.965 368.266 405.312 371.446C413.849 374.352 419.042 365.178 422.076 358.964C426.385 350.1 428.207 340.98 427.269 331.086C426.567 323.679 424.217 316.609 421.055 309.899C417.621 302.572 411.116 289.14 402.743 281.741" fill="white"/>
<path d="M329.692 279.51L329.575 279.482L324.962 278.239L323.311 266.193L330.527 261.613L334.13 262.585L334.241 262.613L337.847 263.586L341.78 271.171L334.304 280.753L329.692 279.51" fill="#082032"/>
<path d="M314.611 335.031L305.609 319.133L324.379 281.062L328.824 282.261L328.884 282.275L328.942 282.29L333.39 283.489L330.5 325.838L314.725 335.058L314.696 335.177L314.651 335.104L314.58 335.149L314.611 335.031" fill="#082032"/>
<path d="M228.804 194.954C223.303 193.902 216.389 198.255 213.43 204.628L195.015 244.288C192.054 250.658 194.799 256.906 201.109 258.171C207.421 259.436 214.771 255.157 217.447 248.665L233.925 208.671C236.604 202.176 234.295 196.002 228.804 194.954" fill="#082032"/>
<path d="M264.25 187.67L248.847 183.213L241.303 209.284L256.701 213.74C262.121 215.311 267.787 212.187 269.357 206.767L271.222 200.323C272.791 194.906 269.667 189.239 264.25 187.67Z" fill="#D85E54"/>
<path d="M216.311 157.491C192.839 140.662 171.969 118.498 164.844 99.6635C153.154 68.7731 135.702 63.7258 135.702 63.7258L82.4512 247.732C82.4512 247.732 99.4406 254.37 125.819 234.501C141.647 222.576 170.436 215.031 198.818 213.18C211.635 192.947 215.366 171.343 216.311 157.491Z" fill="#D85E54"/>
<path d="M261.651 180.974C257.68 179.824 253.559 178.309 249.364 176.515C246.876 195.064 242.564 207.105 238.645 214.715C243.036 215.433 247.214 216.337 251.09 217.456C251.09 217.456 256.819 215.804 261.289 200.352C265.76 184.898 261.651 180.974 261.651 180.974Z" fill="#D85E54"/>
<path d="M249.364 176.515C238.519 171.877 227.142 165.258 216.312 157.492C215.366 171.344 211.635 192.948 198.818 213.181C212.719 212.272 226.513 212.736 238.644 214.715C242.564 207.106 246.876 195.064 249.364 176.515Z" fill="#B22429"/>
<path d="M134.457 163.072C119.75 213.889 96.4652 251.79 82.4504 247.733C68.4319 243.677 68.9904 199.198 83.6958 148.384C98.4003 97.5726 121.683 59.6706 135.701 63.7267C149.719 67.7855 149.163 112.263 134.457 163.072" fill="#B22429"/>
<path d="M106.287 149.193L103.439 159.026C100.93 167.699 105.924 176.767 114.6 179.276L127.97 183.145C130.262 176.742 132.443 170.033 134.457 163.072C136.546 155.848 138.34 148.761 139.859 141.89L126.535 138.032C117.86 135.523 108.796 140.519 106.287 149.193Z" fill="#082032"/>
<path d="M28.8868 188.372C24.1648 179.544 21.8944 169.422 21.3314 159.308C20.8039 149.144 22.0566 138.963 24.7087 129.105C27.3089 119.387 31.4843 109.788 37.2887 101.439C43.1049 93.0678 50.2713 85.936 58.2585 79.9886C52.7949 88.3376 47.2283 96.3376 42.8871 104.826C38.4666 113.278 35.2187 122.092 32.7196 131.34C30.2643 140.457 28.5342 149.865 27.8509 159.362C27.1112 168.888 27.4884 178.504 28.8868 188.372" fill="#D85E54"/>
<path d="M10.9815 195.472C7.22336 190.603 5.06687 184.65 3.3477 178.748C1.73968 172.784 0.722008 166.652 0.302009 160.478C-0.626361 148.114 0.595371 135.609 3.83237 123.515C7.0885 111.501 12.4874 100.055 19.5509 89.9126C23.0457 84.8097 27.0243 80.0476 31.3874 75.6882C35.8334 71.4654 40.5991 67.3037 46.2923 64.944C41.6432 68.8488 37.947 73.5353 34.4877 78.3503C31.0111 83.1452 27.929 88.2016 25.0674 93.3363C19.4407 103.68 14.8963 114.473 11.8497 125.733C8.82589 136.921 7.17689 148.598 6.76783 160.334C6.6257 166.204 6.72132 172.115 7.34084 177.998C7.91754 183.891 8.87329 189.77 10.9815 195.472" fill="#D85E54"/>
<path d="M49.3304 174.841C46.8541 168.613 45.8501 161.912 45.7372 155.218C45.6597 148.502 46.5334 141.836 48.31 135.263C50.0392 128.861 52.7122 122.548 56.1652 116.829C59.6518 111.118 63.9192 105.849 69.2189 101.743C66.6952 107.932 64.218 113.771 62.0543 119.69C59.865 125.607 57.9727 131.451 56.3136 137.53C54.7056 143.438 53.3372 149.563 52.2348 155.738C51.0996 161.936 50.2815 168.223 49.3304 174.841" fill="#D85E54"/>
</svg>
